<svg xmlns="http://www.w3.org/2000/svg" width="227" height="89" viewBox="0 0 227 89"><defs><clipPath id="clip-path"><path id="Rectangle_1279" fill="none" d="M0 0h141.513v32.154H0z" data-name="Rectangle 1279"/></clipPath></defs><g id="Group_2442" data-name="Group 2442" transform="translate(.355 -.398)"><g id="Group_2377" data-name="Group 2377" transform="translate(41.663 29.406)"><g id="Group_2376" fill="#161615" clip-path="url(#clip-path)" data-name="Group 2376"><path id="Path_2604" d="M362.336 6.26c-.558 1.638-1.775 2.141-3.4 2.081s-3.258-.013-5.055-.013v13.754c0 .942.018 1.885-.005 2.826-.042 1.688-.843 2.642-2.234 2.55-1.506-.1-2.117-1.025-2.112-2.492.017-4.946 0-9.892 0-14.838v-1.8c-1.893 0-3.634.023-5.374-.006-1.9-.032-2.752-.739-2.766-2.218s.85-2.244 2.725-2.254c5.058-.026 10.117.007 15.175-.018a2.854 2.854 0 0 1 3.044 2.076Z" data-name="Path 2604" transform="translate(-220.823 -2.478)"/><path id="Path_2605" d="M11.432 10.837c1.55-2.961 3.076-6.077 4.818-9.067A3.677 3.677 0 0 1 18.695 0c.736-.028 1.8.987 2.232 1.8 3.355 6.4 6.589 12.859 9.873 19.3.624 1.224 1.029 2.488-.172 3.534-1.163 1.012-2.283.3-3.385-.341-4.458-2.575-8.933-5.118-13.579-7.775-1.344 2.506-2.492 4.665-3.657 6.814-1.052 1.94-2.115 2.266-3.988 1.1C3.148 22.637.8 20.4.124 16.89c-.67-3.459 1.426-6.266 4.951-6.394 2.028-.073 4.069.206 6.357.341m11.777 5.784.261-.216L18.355 6.9 15.5 12.77l7.708 3.851M6.919 20.058l2.376-4.866a31.2 31.2 0 0 0-3.5-.42c-1.4-.008-1.93.831-1.251 2.067a31.018 31.018 0 0 0 2.372 3.218" data-name="Path 2605"/><path id="Path_2606" d="M101.075 15.683c0-3.06.016-6.121 0-9.181a2.259 2.259 0 0 1 2.447-2.583 73.593 73.593 0 0 1 8.622.24 11.574 11.574 0 0 1 10.146 11.975 11.9 11.9 0 0 1-11.651 11.394c-2.234.025-4.468.017-6.7.007-2.156-.009-2.826-.647-2.854-2.848-.038-3-.01-6-.008-9m4.675-7.1V23.2c1.841 0 3.549.113 5.236-.023a7.446 7.446 0 0 0 6.874-6.676c.3-3.721-1.828-7.129-5.391-7.842-2.133-.427-4.422-.078-6.719-.078" data-name="Path 2606" transform="translate(-65.371 -2.525)"/><path id="Path_2607" d="M233.362 12.58a42.342 42.342 0 0 1-.062 6.869c-.914 5.489-5.6 8.83-11.261 8.357-5.288-.442-9.121-4.5-9.347-10.13-.146-3.645-.052-7.3-.03-10.949a2.092 2.092 0 0 1 2.23-2.381c1.575-.02 2.191.947 2.2 2.376q.041 5.387.022 10.774c-.018 4.9 4.586 6.8 8.083 5.665 2.452-.8 3.924-2.892 3.965-5.847.049-3.473 0-6.947.02-10.421.009-1.821.649-2.546 2.156-2.538 1.48.008 2.134.77 2.151 2.573.018 1.884 0 3.768 0 5.652h-.135" data-name="Path 2607" transform="translate(-137.525 -2.811)"/><path id="Path_2608" d="M291.12 27.416c-3.355-.332-5.823-1.431-7.809-3.928-1-1.264-.951-2.58.156-3.406 1.235-.922 2.279-.511 3.237.526 2.2 2.384 4.5 2.969 6.886 1.79 1.829-.9 2.054-2.736.387-3.889A18.028 18.028 0 0 0 291 17.031c-1.174-.522-2.411-.912-3.556-1.489-3.258-1.644-4.663-4.263-4.078-7.43a6.671 6.671 0 0 1 6.678-5.21 17.68 17.68 0 0 1 5.986 1.025 6.19 6.19 0 0 1 2.129 1.492 2.092 2.092 0 0 1 .327 3.01c-.873 1.11-1.943.985-3.151.433a22.767 22.767 0 0 0-4.673-1.726 2.239 2.239 0 0 0-2.842 1.731 3.75 3.75 0 0 0 1.716 2.686 51.438 51.438 0 0 0 4.951 2.23 13.478 13.478 0 0 1 3.253 2.041 6.23 6.23 0 0 1-1.331 9.938 11.362 11.362 0 0 1-5.285 1.654" data-name="Path 2608" transform="translate(-182.792 -1.876)"/><path id="Path_2609" d="M168.941 14.226c-.291 3.739.077 7.558-.686 11.2-1.069 5.1-4.97 7.756-9.7 9.236a2.108 2.108 0 0 1-2.851-1.388c-.416-1.293.4-2.129 1.478-2.663.73-.362 1.564-.518 2.284-.9a8.42 8.42 0 0 0 4.968-7.724c.054-4.708.031-9.417.042-14.126 0-.471-.023-.944.012-1.412.1-1.336.758-2.321 2.133-2.362a2.146 2.146 0 0 1 2.3 2.348c.063 2.588.018 5.179.018 7.769.093.007-.093.013 0 .02" data-name="Path 2609" transform="translate(-100.642 -2.644)"/></g></g><path id="Rectangle_1334" fill="none" d="M0 0h227v89H0z" data-name="Rectangle 1334" transform="translate(-.355 .398)"/></g></svg>