<svg xmlns="http://www.w3.org/2000/svg" width="227" height="90" viewBox="0 0 227 90"><defs><clipPath id="clip-path"><path id="Rectangle_1164" fill="none" d="M0 0h120.524v71.235H0z" data-name="Rectangle 1164"/></clipPath></defs><g id="Group_2437" data-name="Group 2437" transform="translate(.157)"><g id="Group_2256" data-name="Group 2256" transform="translate(52.701 9.434)"><g id="Group_2244" clip-path="url(#clip-path)" data-name="Group 2244"><path id="Path_2314" fill="#542c7e" d="M495.041 110.387c0-3.036-.006-6.073 0-9.109 0-1.747.621-2.371 2.341-2.374 3.567 0 7.135-.01 10.7.007a2.332 2.332 0 0 1 2.369 1.74 2.469 2.469 0 0 1-1.027 2.686 2.866 2.866 0 0 1-1.629.359c-2.154 0-4.309.018-6.463-.007-.709-.008-1.039.209-.99.972.054.844.031 1.695.006 2.541-.019.639.247.867.885.853 1.553-.032 3.108-.023 4.662-.005a2.33 2.33 0 0 1 2.528 2.384 2.362 2.362 0 0 1-2.5 2.441 91.72 91.72 0 0 1-4.662 0c-.681-.017-.964.189-.923.9a23.223 23.223 0 0 1 0 2.541c-.036.7.227.923.919.913a206.29 206.29 0 0 1 6.675 0 2.476 2.476 0 0 1 2.513 3.12 2.3 2.3 0 0 1-2.263 1.736q-5.616.035-11.232 0c-1.245-.008-1.907-.777-1.914-2.165-.016-3.178-.005-6.355-.005-9.533" data-name="Path 2314" transform="translate(-390.024 -77.919)"/><path id="Path_2315" fill="#542c7e" d="M398.166 120.435a11 11 0 0 1-5.917-1.524 2.536 2.536 0 0 1-1.1-3.527 2.508 2.508 0 0 1 3.631-.945 8.071 8.071 0 0 0 2.988.994 2.185 2.185 0 0 0 2.456-1.219c.39-1.122-.252-1.827-1.065-2.4-1.332-.939-2.884-1.476-4.3-2.274a7.676 7.676 0 0 1-4.012-4.428c-1.343-4.534 1.8-8.631 6.814-8.861a10.946 10.946 0 0 1 4.659.79 2.474 2.474 0 1 1-1.666 4.657 5.645 5.645 0 0 0-2.587-.383 1.839 1.839 0 0 0-1.678 1.1 1.909 1.909 0 0 0 .455 2.054 6.89 6.89 0 0 0 2.191 1.451c1.131.571 2.3 1.069 3.4 1.708a6.455 6.455 0 0 1 3.5 7.075 6.952 6.952 0 0 1-5.416 5.451 9.007 9.007 0 0 1-2.353.279" data-name="Path 2315" transform="translate(-307.696 -75.824)"/><path id="Path_2316" fill="#542c7e" d="M132.288 109.846v-9.006c0-1.7.451-2.169 2.108-2.173q4.452-.01 8.9 0c1.7.007 2.74.939 2.733 2.4s-1.035 2.373-2.751 2.382c-1.519.008-3.039.035-4.557-.01-.808-.024-1.177.231-1.137 1.082a33.34 33.34 0 0 1 0 2.966c-.028.661.235.852.868.835 1.377-.037 2.756-.016 4.133-.01 1.834.008 2.8.94 2.789 2.692-.007 1.717-.93 2.608-2.727 2.617-1.378.007-2.756.027-4.133-.008-.684-.017-.947.22-.931.918.036 1.518.021 3.037.006 4.556a2.609 2.609 0 0 1-2.589 2.862 2.661 2.661 0 0 1-2.7-2.885c-.021-3.073-.006-6.145-.007-9.218" data-name="Path 2316" transform="translate(-104.221 -77.731)"/><path id="Path_2317" fill="#542c7e" d="M230.166 109.786c0-3.035-.006-6.07 0-9.105 0-1.562.454-2.011 2.015-2.015q4.448-.009 8.9 0c1.726.007 2.717.9 2.714 2.408s-1 2.368-2.738 2.378c-1.553.009-3.107.026-4.66-.007-.691-.015-.949.244-.926.929a44.845 44.845 0 0 1 0 3.176c-.024.618.213.787.8.775 1.447-.032 2.895-.024 4.342-.006a2.476 2.476 0 0 1 2.685 2.712 2.419 2.419 0 0 1-2.666 2.592c-1.377.011-2.755.043-4.13-.011-.776-.031-1.067.194-1.036 1 .057 1.515.028 3.035.011 4.552a2.611 2.611 0 0 1-2.563 2.779 2.642 2.642 0 0 1-2.734-2.741c-.031-3.141-.009-6.282-.009-9.423" data-name="Path 2317" transform="translate(-181.334 -77.731)"/><path id="Path_2318" fill="#542c7e" d="M334.732 109.768c0 3.033.022 6.066-.01 9.1a2.535 2.535 0 0 1-2.086 2.563 2.644 2.644 0 0 1-2.961-1.513 3.318 3.318 0 0 1-.245-1.342c0-5.854-.014-11.709.007-17.563a2.7 2.7 0 0 1 2.705-2.9c1.547.024 2.583 1.194 2.591 2.981.014 2.892 0 5.784 0 8.676Z" data-name="Path 2318" transform="translate(-259.543 -77.298)"/><path id="Path_2319" fill="#542c7e" d="M19.829 111.122H19.8c0-1.871.063-3.745-.012-5.614-.214-5.3-3.168-8.594-8.435-9.112C5.638 95.832.18 98.644.039 106.19c-.069 3.707-.027 7.416-.014 11.124a2.62 2.62 0 0 0 2.638 2.824 2.673 2.673 0 0 0 2.666-2.822 93.44 93.44 0 0 0 0-3.39c-.011-.48.106-.69.641-.685q3.921.035 7.842 0c.563-.006.734.188.718.73a60.128 60.128 0 0 0 0 3.178c.041 1.826 1.042 2.91 2.655 2.912s2.63-1.1 2.644-2.9c.016-2.013 0-4.026 0-6.039m-5.978-2.709c-1.305-.01-2.61 0-3.916 0-1.27 0-2.542-.04-3.809.016-.686.03-.822-.225-.807-.848a9.109 9.109 0 0 1 .894-4.195c.951-1.768 2.532-2.2 4.4-2.034a3.724 3.724 0 0 1 3.461 2.646 12.147 12.147 0 0 1 .451 3.864c.011.51-.273.558-.67.555" data-name="Path 2319" transform="translate(0 -75.891)"/><path id="Path_2320" fill="#d72a2e" d="M174.564 258.83a8.164 8.164 0 1 0 8.14 8.12 8.163 8.163 0 0 0-8.14-8.12m.049 12.119a3.994 3.994 0 0 1-4.025-3.924 3.981 3.981 0 0 1 7.961-.1 4.005 4.005 0 0 1-3.936 4.021" data-name="Path 2320" transform="translate(-131.089 -203.923)"/><path id="Path_2321" fill="#ffdf00" d="M98.213 0a6.128 6.128 0 0 0-6.189 6.154 6.2 6.2 0 1 0 12.4.089A6.141 6.141 0 0 0 98.213 0m-.02 9.172a2.98 2.98 0 1 1 .107-5.959 2.923 2.923 0 0 1 2.89 2.988 2.9 2.9 0 0 1-3 2.971" data-name="Path 2321" transform="translate(-72.502 .001)"/><path id="Path_2322" fill="#89b21a" d="M425.512 242.726a3.86 3.86 0 1 0 3.863 3.888 3.8 3.8 0 0 0-3.863-3.888m.023 5.749a1.889 1.889 0 0 1-.054-3.778 1.889 1.889 0 1 1 .054 3.778" data-name="Path 2322" transform="translate(-332.2 -191.235)"/></g></g><path id="Rectangle_1226" fill="none" d="M0 0h227v90H0z" data-name="Rectangle 1226" transform="translate(-.157)"/></g></svg>