<svg xmlns="http://www.w3.org/2000/svg" id="Group_2443" width="226" height="90" data-name="Group 2443" viewBox="0 0 226 90"><defs><clipPath id="clip-path"><path id="Rectangle_1165" fill="none" d="M0 0h121.439v39.893H0z" data-name="Rectangle 1165"/></clipPath></defs><g id="Group_2253" data-name="Group 2253" transform="translate(52.41 25.157)"><g id="Group_2246" clip-path="url(#clip-path)" data-name="Group 2246"><path id="Path_2323" fill="#3274ba" d="M22.78 14.086h6.812c.282 0 .286 0 .33.268s.093.522.118.785a17.274 17.274 0 0 1-.1 4.215 14.027 14.027 0 0 1-1.414 4.4 12.817 12.817 0 0 1-5.57 5.539A14.766 14.766 0 0 1 18 30.812a16.293 16.293 0 0 1-2.888.127A15.727 15.727 0 0 1 .214 17.889a13.858 13.858 0 0 1-.2-3.071A15.221 15.221 0 0 1 1.962 8.1a15.734 15.734 0 0 1 3.261-4.079 15.437 15.437 0 0 1 7.84-3.813A15.217 15.217 0 0 1 16.74.044a15.157 15.157 0 0 1 8.922 3.608c.17.144.32.31.484.461a.125.125 0 0 1 0 .212c-.114.112-.223.227-.334.342l-2.322 2.4c-.193.2-.2.2-.4.01a10.557 10.557 0 0 0-6.06-2.766 10.8 10.8 0 0 0-8.585 2.63 10.908 10.908 0 0 0-3.624 6.4 10.738 10.738 0 0 0-.159 3.1 10.862 10.862 0 0 0 6.853 9.447 10.731 10.731 0 0 0 5.169.789 11.023 11.023 0 0 0 4.3-1.165 8.385 8.385 0 0 0 4.612-6.152c.055-.291.086-.587.128-.879.02-.134-.029-.2-.171-.191-.084.005-.17 0-.254 0H16.1c-.442 0-.419.057-.419-.4v-3.5c0-.306 0-.307.321-.307h6.78" data-name="Path 2323"/><path id="Path_2324" fill="#3274ba" d="M240.016 35.365v-1.329c0-.256.006-.261.269-.261h3.629c.248 0 .248.006.255.242v17.817a13.145 13.145 0 0 1-.685 4.31 8.715 8.715 0 0 1-1.986 3.3 8.081 8.081 0 0 1-4 2.241 10.591 10.591 0 0 1-5.925-.2 9.044 9.044 0 0 1-4.263-3.04 12.325 12.325 0 0 1-1.268-1.978 1.366 1.366 0 0 1-.042-.086c-.1-.222-.1-.235.118-.332.251-.112.506-.217.761-.323q1.305-.545 2.611-1.088c.217-.09.217-.086.319.129a5.9 5.9 0 0 0 2.141 2.5 5.069 5.069 0 0 0 2.357.787 5.694 5.694 0 0 0 2.914-.478 4.587 4.587 0 0 0 2.486-2.908 7.2 7.2 0 0 0 .3-2.1c.01-.519 0-1.039 0-1.559 0-.09.03-.187-.032-.267-.087-.006-.113.059-.153.1a6.4 6.4 0 0 1-4.454 2.168 9.11 9.11 0 0 1-7.241-2.706 9.416 9.416 0 0 1-2.913-5.826 9.981 9.981 0 0 1 3.324-8.958 8.846 8.846 0 0 1 4.473-2.217 7.669 7.669 0 0 1 5.215.726 6.693 6.693 0 0 1 1.5 1.12.534.534 0 0 0 .287.206M229.5 43.15c.014.328.016.675.066 1.024a5.678 5.678 0 0 0 1.792 3.524 5.073 5.073 0 0 0 5.19 1.188 5.157 5.157 0 0 0 3.394-3.362 7.016 7.016 0 0 0 .353-3.191 6.165 6.165 0 0 0-1.217-3.192 4.908 4.908 0 0 0-3.405-2.023 5.219 5.219 0 0 0-5.044 2.273 6.16 6.16 0 0 0-1.128 3.76" data-name="Path 2324" transform="translate(-150.19 -22.118)"/><path id="Path_2325" fill="#feb700" d="M169.814 53a9.9 9.9 0 0 1-6.341-2.164 10.1 10.1 0 0 1-1.87-13.571 9.488 9.488 0 0 1 6.156-3.948 10.146 10.146 0 0 1 8.317 1.93 9 9 0 0 1 3.419 5.458 10.429 10.429 0 0 1-.3 5.735 9.788 9.788 0 0 1-9.38 6.56m-5.658-10.136a6.675 6.675 0 0 0 .95 3.625 5.506 5.506 0 0 0 9.849-1 6.58 6.58 0 0 0 .327-3.748 5.669 5.669 0 0 0-2.059-3.516 5.285 5.285 0 0 0-3.979-1.17 5.379 5.379 0 0 0-3.568 1.813 6.039 6.039 0 0 0-1.521 3.993" data-name="Path 2325" transform="translate(-106.601 -22.09)"/><path id="Path_2326" fill="#e13325" d="M94.6 43.754a10.481 10.481 0 0 1 1.9-6.618 9.358 9.358 0 0 1 5.625-3.73 10.154 10.154 0 0 1 9.121 2.133 8.782 8.782 0 0 1 2.931 4.66 10.421 10.421 0 0 1-.283 6.529 9.342 9.342 0 0 1-6.139 5.787 10.146 10.146 0 0 1-7.731-.57 9.318 9.318 0 0 1-4.229-4.128 9.715 9.715 0 0 1-1.195-4.063m15.616-.823c-.042-.486-.062-.814-.122-1.138a5.757 5.757 0 0 0-1.717-3.263 5.3 5.3 0 0 0-4.37-1.473 5.389 5.389 0 0 0-3.74 2.054 6.614 6.614 0 0 0-.2 7.62 5.47 5.47 0 0 0 7.222 1.639 5.886 5.886 0 0 0 2.925-5.44" data-name="Path 2326" transform="translate(-63.113 -22.086)"/><path id="Path_2327" fill="#e13325" d="m328.265 40.529-13.3 5.53a6.065 6.065 0 0 0 1.223 1.682 4.81 4.81 0 0 0 2.842 1.285 5.952 5.952 0 0 0 2.994-.372 5.607 5.607 0 0 0 2.433-1.981c.056-.077.114-.153.164-.234s.109-.077.182-.027c.157.108.318.211.476.317l2.645 1.765c.192.129.194.134.065.3a10.534 10.534 0 0 1-4.591 3.552 9.713 9.713 0 0 1-3.005.625 9.883 9.883 0 0 1-4.47-.762 9.172 9.172 0 0 1-5.537-6.5 10.685 10.685 0 0 1 .566-7.092 8.773 8.773 0 0 1 6.8-5.392 8.39 8.39 0 0 1 7.923 2.679 9.478 9.478 0 0 1 1.875 2.929c.231.556.472 1.108.721 1.692m-5.137-1.514a3.041 3.041 0 0 0-.979-1.236 4.241 4.241 0 0 0-3.64-.753 5.471 5.471 0 0 0-3.345 2.359 4.922 4.922 0 0 0-.923 3.045c.011.309.03.32.3.207.019-.008.037-.021.056-.029l7.7-3.219a4.768 4.768 0 0 0 .831-.375" data-name="Path 2327" transform="translate(-206.826 -22.068)"/><path id="Path_2328" fill="#499f3c" d="M291.067 17.736V3.482c0-.461-.059-.4.407-.4h3.788c.125-.008.17.053.163.171V32.14c-.005.237-.005.241-.249.241h-3.82c-.31 0-.29.016-.29-.3V17.736Z" data-name="Path 2328" transform="translate(-194.176 -2.053)"/></g></g><path id="Rectangle_1225" fill="none" d="M0 0h226v90H0z" data-name="Rectangle 1225"/></svg>