<svg xmlns="http://www.w3.org/2000/svg" width="226" height="89" viewBox="0 0 226 89"><defs><linearGradient id="linear-gradient" x1=".782" x2=".229" y1=".711" y2=".089" gradientUnits="objectBoundingBox"><stop offset="0" stop-color="#0064e1"/><stop offset="1" stop-color="#0181fa"/></linearGradient><linearGradient id="linear-gradient-2" x1=".981" x2="2.206" y1=".684" y2="1.059" gradientUnits="objectBoundingBox"><stop offset="0" stop-color="#0064e0"/><stop offset="1" stop-color="#0181fa"/></linearGradient><linearGradient id="linear-gradient-3" x1=".665" x2=".292" y1=".313" y2=".4" gradientUnits="objectBoundingBox"><stop offset="0" stop-color="#0074ef"/><stop offset="1" stop-color="#0064e0"/></linearGradient><clipPath id="clip-path"><path id="Rectangle_1197" fill="none" d="M0 0h130.098v26.179H0z" data-name="Rectangle 1197"/></clipPath></defs><g id="Group_2439" data-name="Group 2439" transform="translate(-.053 -.398)"><g id="Group_2269" data-name="Group 2269" transform="translate(47.961 32.551)"><g id="Group_2268" clip-path="url(#clip-path)" data-name="Group 2268"><path id="Path_2370" fill="url(#linear-gradient)" d="M24.693 0a10.7 10.7 0 0 0 1.252.287 8.735 8.735 0 0 1 2.912 1.457 10.189 10.189 0 0 1 1.514 1.369 15.7 15.7 0 0 1 2.049 2.869 19.917 19.917 0 0 1 1.68 3.951 21.081 21.081 0 0 1 .712 3.16c.119.827.2 1.655.261 2.49a19.2 19.2 0 0 1 .029 2.7 12.229 12.229 0 0 1-.751 3.581 7.028 7.028 0 0 1-1.72 2.711 5.852 5.852 0 0 1-3.391 1.544 7.4 7.4 0 0 1-2.414-.094c.036-.61.093-1.22.1-1.83 0-.53.046-1.058.075-1.584a3.668 3.668 0 0 1 .083-1c.024.009.048.017.07.027a2.681 2.681 0 0 0 3.759-1.474 8.251 8.251 0 0 0 .464-3.155 21.752 21.752 0 0 0-.217-3.08 19.46 19.46 0 0 0-1.66-5.787 9.581 9.581 0 0 0-3.02-3.848 4.319 4.319 0 0 0-5.467.113 11.707 11.707 0 0 0-1.82 1.9c-.461.583-.861 1.211-1.3 1.811a.382.382 0 0 1-.175-.172c-.427-.6-.859-1.2-1.285-1.8a3.368 3.368 0 0 1-.484-.666c.214-.266.416-.54.627-.808a18.539 18.539 0 0 1 2.51-2.659A8.522 8.522 0 0 1 22.722.121c.183-.042.386.011.549-.121Z" data-name="Path 2370" transform="translate(4.324 -.001)"/><path id="Union_2" fill="url(#linear-gradient-2)" stroke="rgba(0,0,0,0)" stroke-width="1" d="M28.542 24.913a12.578 12.578 0 0 1-2.493-2.549 48.945 48.945 0 0 1-3.494-5.372L20.21 13.1c-.149-.243-.294-.486-.44-.729-.214-.34-.424-.683-.641-1.02-.451-.7-.884-1.418-1.405-2.075-.045-.072-.081-.146-.127-.214a23.964 23.964 0 0 0-1.359-1.784 12.225 12.225 0 0 0-2.031-2 4.761 4.761 0 0 0-2.817-1 3.939 3.939 0 0 0-2.522.9A9.928 9.928 0 0 0 6.3 8.439a18.387 18.387 0 0 0-1.224 3.073 1.393 1.393 0 0 1-.35.052h-1.85 1.85a1.374 1.374 0 0 0 .35-.052 27.368 27.368 0 0 0-.581 2.688c-.1.69-.149 1.39-.223 2.082H.317c-.116 0-.236.013-.317-.1v-.408a2.819 2.819 0 0 0 .1-.758A22.151 22.151 0 0 1 .683 11.5c.137-.593.3-1.175.492-1.752a17.97 17.97 0 0 1 3.676-6.574A9.532 9.532 0 0 1 9.514.227c.379-.1.77-.152 1.157-.227h1.476a1.327 1.327 0 0 0 .637.136A7.229 7.229 0 0 1 14.8.741a10.989 10.989 0 0 1 3.187 2.264A22.574 22.574 0 0 1 19.8 4.958a1.769 1.769 0 0 0 .476.519 3.466 3.466 0 0 0 .485.667c.425.6.859 1.2 1.286 1.8.049.068.091.142.175.172a.218.218 0 0 0 .039.162c.3.447.593.9.884 1.35a.5.5 0 0 0-.124.391c0 .665-.068 1.328-.094 1.988.026-.66.091-1.321.1-1.985a.492.492 0 0 1 .123-.4c.518.771.985 1.574 1.461 2.367 1.463 2.416 2.895 4.854 4.514 7.176a8.135 8.135 0 0 0 2.282 2.445 3.687 3.687 0 0 0-.084 1c-.029.528-.072 1.056-.075 1.583 0 .612-.061 1.221-.1 1.83a5.883 5.883 0 0 1-2.606-1.11Zm-5.987-7.921c.159-.029.159-.153.162-.275-.003.119-.003.242-.162.275Zm.162-.275c.017-.554.02-1.108.056-1.661-.037.55-.04 1.106-.056 1.66Zm-21.69-5.153Z" data-name="Union 2" transform="translate(-.001 .001)"/><path id="Path_2372" fill="url(#linear-gradient-3)" d="M17.722 7.3a24.878 24.878 0 0 1 1.406 2.076c.217.338.427.68.639 1.019-.145.079-.179.236-.252.365-1.359 2.376-2.655 4.787-4.109 7.108a21.627 21.627 0 0 1-3.514 4.474 6.608 6.608 0 0 1-5.373 1.816 6.623 6.623 0 0 1-3.376-1.186 7.182 7.182 0 0 1-2.525-3.618 11.3 11.3 0 0 1-.568-2.889c0-.05.006-.1-.05-.133V14.2c.08.114.2.1.318.1h3.953c.013.615-.02 1.23.042 1.846a6.4 6.4 0 0 0 .592 2.257A2.579 2.579 0 0 0 7 19.926a3.1 3.1 0 0 0 2.385-.721 11.784 11.784 0 0 0 2.043-2.311c1.488-2.073 2.813-4.253 4.2-6.395.691-1.07 1.394-2.133 2.092-3.2" data-name="Path 2372" transform="translate(0 1.978)"/><path id="Path_2374" fill="#16232b" d="M41.6 6.6v.3q0 9.178.005 18.358c0 .228-.051.294-.286.29a132.64 132.64 0 0 0-3.455 0c-.273 0-.308-.084-.308-.324q.01-8.151.005-16.3 0-3.994-.005-7.987c0-.225.048-.3.289-.295 1.464.013 2.93.01 4.394 0a.378.378 0 0 1 .39.229q4.034 7.306 8.08 14.608c.053.1.108.188.177.306.405-.735.8-1.449 1.2-2.163L59.135.874a.38.38 0 0 1 .386-.235q2.172.017 4.344 0c.192 0 .239.051.239.24Q64.1 13.1 64.1 25.324c0 .183-.056.221-.229.221a200.72 200.72 0 0 0-3.556 0c-.244 0-.266-.083-.266-.286q.008-8.431 0-16.862V6.576c-.1.051-.122.142-.161.214q-3.529 6.33-7.051 12.664a.359.359 0 0 1-.367.224q-1.64-.015-3.278 0a.376.376 0 0 1-.391-.225q-3.516-6.336-7.047-12.664l-.118-.208-.036.019" data-name="Path 2374" transform="translate(10.18 .173)"/><path id="Path_2375" fill="#16232b" d="M102.46 21.7a7.024 7.024 0 0 1-2.02 1.921 7.753 7.753 0 0 1-4.81 1.079 7.634 7.634 0 0 1-4.938-2.255 9.234 9.234 0 0 1-2.473-4.622 11.863 11.863 0 0 1 .431-7.023 8 8 0 0 1 5.069-5.038 7.89 7.89 0 0 1 7.16.82 6.813 6.813 0 0 1 1.581 1.53c0-.732.015-1.4-.008-2.076-.008-.263.07-.315.319-.311 1.093.014 2.185.01 3.278 0 .174 0 .226.038.226.22q-.008 9.066 0 18.132c0 .163-.039.211-.207.21q-1.7-.011-3.405 0c-.169 0-.208-.047-.207-.21.009-.768 0-1.537 0-2.381m-.074-6.677v-2.58a.723.723 0 0 0-.038-.3 5.22 5.22 0 0 0-2.527-2.759 5.652 5.652 0 0 0-3.108-.524 4.778 4.778 0 0 0-4.273 3.126 8.109 8.109 0 0 0 .084 6.311 4.52 4.52 0 0 0 2.68 2.578 5.592 5.592 0 0 0 2.747.278 5.333 5.333 0 0 0 4.338-3.127 1.019 1.019 0 0 0 .1-.463c-.005-.845 0-1.691 0-2.536" data-name="Path 2375" transform="translate(23.822 1.428)"/><path id="Path_2376" fill="#16232b" d="M72.074 16.468c-2.185 0-4.37 0-6.555-.006-.252 0-.267.07-.221.283a6.2 6.2 0 0 0 1.3 2.791 5.062 5.062 0 0 0 3.702 1.787 7.6 7.6 0 0 0 4.816-1.157 7.518 7.518 0 0 0 1.073-.849c.112-.109.169-.105.269.019q.938 1.167 1.9 2.316c.112.135.083.2-.034.3a10.793 10.793 0 0 1-5.759 2.641 11.334 11.334 0 0 1-4.7-.226 8.394 8.394 0 0 1-6-5.67 10.842 10.842 0 0 1 .784-9.1 8.2 8.2 0 0 1 6.095-4.174 8.938 8.938 0 0 1 5.027.52 7.848 7.848 0 0 1 4.3 4.608 12.578 12.578 0 0 1 .821 4.327c.013.447-.006.9.01 1.344.006.2-.046.25-.248.249-2.193-.008-4.386 0-6.579 0m-1.946-2.94h4.7c.159 0 .221-.023.192-.2-.056-.35-.1-.7-.186-1.045A4.687 4.687 0 0 0 67.282 9.7a5.856 5.856 0 0 0-2.01 3.667c-.039.21.1.161.21.163h4.646" data-name="Path 2376" transform="translate(16.593 1.431)"/><path id="Path_2377" fill="#16232b" d="M79.754 14.977c0-1.547-.005-3.094.005-4.641 0-.207-.062-.247-.254-.245-1.075.009-2.151 0-3.227.009-.191 0-.238-.047-.236-.236q.017-1.42 0-2.841c0-.2.06-.234.243-.233 1.084.009 2.168 0 3.253.009.178 0 .222-.046.221-.222-.006-1.656 0-3.314-.008-4.97 0-.193.041-.253.245-.252q1.7.017 3.4 0c.211 0 .247.066.245.257-.006 1.622 0 3.245-.009 4.868 0 .242.038.324.309.322 1.685-.015 3.371 0 5.055-.013.211 0 .268.05.266.262-.013.938-.011 1.876 0 2.814 0 .191-.046.236-.235.235-1.72-.008-3.438 0-5.158-.008-.169 0-.235.034-.234.22.02 2.95-.029 5.9.032 8.85a4.518 4.518 0 0 0 .318 1.6 2.371 2.371 0 0 0 2.226 1.487 11.2 11.2 0 0 0 2.855-.175c.17-.031.2.006.2.164-.006.963 0 1.927 0 2.892 0 .1.006.183-.139.219a10.459 10.459 0 0 1-5.389.109 4.989 4.989 0 0 1-3.673-3.87 9.5 9.5 0 0 1-.3-2.354c-.008-1.42 0-2.841 0-4.261Z" data-name="Path 2377" transform="translate(20.612 .367)"/></g></g><path id="Rectangle_1231" fill="none" d="M0 0h226v89H0z" data-name="Rectangle 1231" transform="translate(.053 .398)"/></g></svg>